<?xml version="1.0" encoding="UTF-8" standalone="no"?><!DOCTYPE svg PUBLIC "-//W3C//DTD SVG 1.1//EN" "http://www.w3.org/Graphics/SVG/1.1/DTD/svg11.dtd"><svg width="100%" height="100%" viewBox="0 0 220 38" version="1.1" xmlns="http://www.w3.org/2000/svg" xmlns:xlink="http://www.w3.org/1999/xlink" xml:space="preserve" xmlns:serif="http://www.serif.com/" style="fill-rule:evenodd;clip-rule:evenodd;stroke-linejoin:round;stroke-miterlimit:1.41421;"><g id="ais_isotipo"><path d="M9.225,0.475l3.295,0l8.9,20.373l-3.757,0l-2.051,-4.884l-9.566,0l-2.08,4.884l-3.641,0l8.9,-20.373Zm5.086,12.339l-3.496,-8.091l-3.468,8.091l6.964,0Z" style="fill:#fff;fill-rule:nonzero;"/><path d="M36.547,21.165c-1.31,0 -2.494,-0.187 -3.554,-0.563c-1.059,-0.376 -1.966,-0.94 -2.717,-1.691c-0.75,-0.751 -1.329,-1.681 -1.733,-2.788c-0.405,-1.108 -0.607,-2.395 -0.607,-3.858l0,-11.646l3.525,0l0,11.501c0,1.888 0.458,3.323 1.368,4.306c0.91,0.982 2.167,1.473 3.777,1.473c1.588,0 2.836,-0.471 3.747,-1.416c0.91,-0.943 1.367,-2.349 1.367,-4.218l0,-11.646l3.525,0l0,11.472c0,1.503 -0.207,2.823 -0.621,3.96c-0.414,1.135 -0.997,2.085 -1.748,2.845c-0.751,0.761 -1.662,1.33 -2.73,1.706c-1.07,0.376 -2.269,0.563 -3.599,0.563" style="fill:#fff;fill-rule:nonzero;"/><path d="M63.089,21.194c-1.579,0 -3.015,-0.266 -4.306,-0.795c-1.29,-0.53 -2.393,-1.262 -3.308,-2.196c-0.915,-0.935 -1.623,-2.032 -2.124,-3.294c-0.501,-1.263 -0.751,-2.635 -0.751,-4.118l0,-0.058c0,-1.406 0.255,-2.745 0.77,-4.017c0.516,-1.271 1.238,-2.384 2.167,-3.337c0.93,-0.955 2.037,-1.71 3.319,-2.269c1.281,-0.559 2.682,-0.838 4.205,-0.838c0.885,0 1.69,0.063 2.413,0.188c0.721,0.125 1.391,0.303 2.008,0.535c0.616,0.23 1.199,0.514 1.749,0.851c0.548,0.338 1.083,0.728 1.603,1.171l-2.254,2.688c-0.386,-0.327 -0.78,-0.626 -1.185,-0.896c-0.405,-0.27 -0.828,-0.496 -1.272,-0.679c-0.442,-0.183 -0.929,-0.328 -1.459,-0.434c-0.529,-0.106 -1.112,-0.158 -1.748,-0.158c-0.925,0 -1.787,0.192 -2.587,0.577c-0.799,0.386 -1.493,0.906 -2.08,1.552c-0.588,0.644 -1.05,1.401 -1.388,2.272c-0.336,0.867 -0.504,1.787 -0.504,2.75l0,0.058c0,1.041 0.163,2.009 0.491,2.895c0.327,0.891 0.789,1.652 1.396,2.287c0.607,0.636 1.324,1.142 2.162,1.508c0.838,0.366 1.773,0.549 2.813,0.549c0.959,0 1.859,-0.14 2.692,-0.419c0.839,-0.284 1.561,-0.655 2.178,-1.122l0,-3.805l-5.173,0l0,-3.092l8.611,0l0,8.496c-0.501,0.423 -1.054,0.828 -1.661,1.213c-0.607,0.386 -1.262,0.723 -1.965,1.012c-0.704,0.289 -1.459,0.516 -2.269,0.679c-0.809,0.164 -1.656,0.246 -2.543,0.246" style="fill:#fff;fill-rule:nonzero;"/><path d="M79.517,0.619l3.786,0l6.155,9.564l6.155,-9.564l3.786,0l0,20.229l-3.526,0l0,-14.507l-6.386,9.536l-0.116,0l-6.328,-9.479l0,14.45l-3.526,0l0,-20.229Z" style="fill:#fff;fill-rule:nonzero;"/><path d="M107.966,0.619l14.969,0l0,3.207l-11.444,0l0,5.202l10.144,0l0,3.208l-10.144,0l0,5.404l11.588,0l0,3.208l-15.113,0l0,-20.229Z" style="fill:#fff;fill-rule:nonzero;"/><path d="M130.693,0.619l3.29,0l10.812,13.986l0,-13.986l3.525,0l0,20.229l-2.971,0l-11.131,-14.392l0,14.392l-3.525,0l0,-20.229Z" style="fill:#fff;fill-rule:nonzero;"/><path d="M161.859,3.913l-6.415,0l0,-3.294l16.413,0l0,3.294l-6.415,0l0,16.935l-3.583,0l0,-16.935Z" style="fill:#fff;fill-rule:nonzero;"/><path d="M178.98,0.619l14.969,0l0,3.207l-11.444,0l0,5.202l10.143,0l0,3.208l-10.143,0l0,5.404l11.588,0l0,3.208l-15.113,0l0,-20.229Z" style="fill:#fff;fill-rule:nonzero;"/><path d="M201.708,0.619l7.542,0c1.58,0 3.029,0.255 4.35,0.766c1.319,0.51 2.456,1.218 3.409,2.124c0.954,0.905 1.69,1.969 2.211,3.193c0.519,1.224 0.78,2.548 0.78,3.974l0,0.057c0,1.426 -0.261,2.755 -0.78,3.988c-0.521,1.233 -1.257,2.302 -2.211,3.208c-0.953,0.905 -2.09,1.618 -3.409,2.138c-1.321,0.52 -2.77,0.781 -4.35,0.781l-7.542,0l0,-20.229Zm7.514,17.021c1.059,0 2.022,-0.169 2.888,-0.506c0.868,-0.342 1.605,-0.814 2.211,-1.426c0.608,-0.607 1.079,-1.334 1.416,-2.177c0.337,-0.838 0.506,-1.753 0.506,-2.74l0,-0.058c0,-0.987 -0.169,-1.907 -0.506,-2.755c-0.337,-0.852 -0.808,-1.585 -1.416,-2.191c-0.606,-0.612 -1.343,-1.089 -2.211,-1.44c-0.866,-0.347 -1.829,-0.521 -2.888,-0.521l-3.989,0l0,13.814l3.989,0Z" style="fill:#fff;fill-rule:nonzero;"/><rect x="40.844" y="29.231" width="1.456" height="8.353" style="fill:#fff;"/><path d="M50.361,37.704c-0.645,0 -1.261,-0.109 -1.85,-0.328c-0.588,-0.219 -1.133,-0.556 -1.634,-1.009l0.882,-1.05c0.407,0.351 0.816,0.618 1.23,0.806c0.413,0.186 0.883,0.28 1.407,0.28c0.454,0 0.814,-0.095 1.08,-0.287c0.267,-0.19 0.401,-0.445 0.401,-0.764l0,-0.023c0,-0.151 -0.027,-0.284 -0.079,-0.399c-0.051,-0.116 -0.146,-0.225 -0.286,-0.329c-0.141,-0.103 -0.332,-0.199 -0.575,-0.287c-0.244,-0.087 -0.56,-0.173 -0.95,-0.261c-0.447,-0.104 -0.844,-0.221 -1.191,-0.353c-0.346,-0.131 -0.638,-0.29 -0.873,-0.476c-0.235,-0.188 -0.416,-0.416 -0.54,-0.687c-0.123,-0.27 -0.184,-0.597 -0.184,-0.979l0,-0.023c0,-0.358 0.071,-0.686 0.213,-0.984c0.142,-0.299 0.338,-0.553 0.587,-0.764c0.248,-0.211 0.547,-0.376 0.896,-0.495c0.348,-0.119 0.73,-0.18 1.144,-0.18c0.612,0 1.163,0.09 1.652,0.269c0.489,0.179 0.949,0.439 1.378,0.782l-0.787,1.109c-0.382,-0.278 -0.76,-0.491 -1.134,-0.638c-0.374,-0.147 -0.752,-0.221 -1.133,-0.221c-0.429,0 -0.763,0.096 -1.003,0.286c-0.238,0.192 -0.358,0.426 -0.358,0.704l0,0.025c0,0.159 0.028,0.299 0.084,0.422c0.056,0.125 0.157,0.236 0.305,0.335c0.148,0.099 0.351,0.193 0.61,0.281c0.261,0.087 0.589,0.178 0.988,0.274c0.438,0.111 0.827,0.235 1.165,0.369c0.339,0.136 0.621,0.301 0.844,0.496c0.223,0.195 0.394,0.421 0.509,0.68c0.115,0.259 0.173,0.559 0.173,0.901l0,0.024c0,0.39 -0.074,0.74 -0.219,1.05c-0.147,0.31 -0.35,0.573 -0.61,0.788c-0.259,0.215 -0.574,0.378 -0.937,0.489c-0.366,0.111 -0.768,0.167 -1.205,0.167" style="fill:#fff;fill-rule:nonzero;"/><path d="M57.945,29.231l1.456,0l0,7.028l4.391,0l0,1.325l-5.847,0l0,-8.353Z" style="fill:#fff;fill-rule:nonzero;"/><path d="M71.174,29.173l1.36,0l3.675,8.411l-1.551,0l-0.846,-2.016l-3.95,0l-0.859,2.016l-1.504,0l3.675,-8.411Zm2.101,5.095l-1.445,-3.341l-1.431,3.341l2.876,0Z" style="fill:#fff;fill-rule:nonzero;"/><path d="M80.524,29.231l1.358,0l4.464,5.775l0,-5.775l1.456,0l0,8.353l-1.226,0l-4.596,-5.942l0,5.942l-1.456,0l0,-8.353Z" style="fill:#fff;fill-rule:nonzero;"/><path d="M92.834,29.231l3.114,0c0.653,0 1.25,0.105 1.796,0.316c0.544,0.211 1.014,0.504 1.407,0.878c0.394,0.373 0.699,0.813 0.913,1.318c0.215,0.506 0.323,1.052 0.323,1.641l0,0.024c0,0.589 -0.108,1.137 -0.323,1.646c-0.214,0.51 -0.519,0.951 -0.913,1.324c-0.393,0.374 -0.863,0.669 -1.407,0.884c-0.546,0.215 -1.143,0.322 -1.796,0.322l-3.114,0l0,-8.353Zm3.102,7.028c0.437,0 0.836,-0.069 1.193,-0.209c0.358,-0.14 0.662,-0.336 0.913,-0.588c0.25,-0.251 0.445,-0.55 0.585,-0.899c0.139,-0.346 0.208,-0.724 0.208,-1.131l0,-0.024c0,-0.408 -0.069,-0.787 -0.208,-1.138c-0.14,-0.351 -0.335,-0.654 -0.585,-0.904c-0.251,-0.253 -0.555,-0.45 -0.913,-0.595c-0.357,-0.144 -0.756,-0.215 -1.193,-0.215l-1.647,0l0,5.703l1.647,0Z" style="fill:#fff;fill-rule:nonzero;"/><path d="M111.563,37.704c-0.645,0 -1.261,-0.109 -1.85,-0.328c-0.589,-0.219 -1.134,-0.556 -1.635,-1.009l0.882,-1.05c0.407,0.351 0.816,0.618 1.23,0.806c0.413,0.186 0.883,0.28 1.407,0.28c0.454,0 0.814,-0.095 1.08,-0.287c0.267,-0.19 0.4,-0.445 0.4,-0.764l0,-0.023c0,-0.151 -0.026,-0.284 -0.078,-0.399c-0.051,-0.116 -0.146,-0.225 -0.286,-0.329c-0.141,-0.103 -0.332,-0.199 -0.575,-0.287c-0.244,-0.087 -0.559,-0.173 -0.95,-0.261c-0.447,-0.104 -0.844,-0.221 -1.191,-0.353c-0.346,-0.131 -0.638,-0.29 -0.873,-0.476c-0.234,-0.188 -0.415,-0.416 -0.539,-0.687c-0.123,-0.27 -0.184,-0.597 -0.184,-0.979l-0.001,-0.023c0.001,-0.358 0.072,-0.686 0.214,-0.984c0.142,-0.299 0.338,-0.553 0.587,-0.764c0.248,-0.211 0.546,-0.376 0.896,-0.495c0.348,-0.119 0.73,-0.18 1.144,-0.18c0.612,0 1.162,0.09 1.651,0.269c0.49,0.179 0.949,0.439 1.379,0.782l-0.787,1.109c-0.382,-0.278 -0.76,-0.491 -1.134,-0.638c-0.374,-0.147 -0.752,-0.221 -1.133,-0.221c-0.43,0 -0.763,0.096 -1.004,0.286c-0.237,0.192 -0.357,0.426 -0.357,0.704l0,0.025c0,0.159 0.028,0.299 0.084,0.422c0.056,0.125 0.157,0.236 0.305,0.335c0.147,0.099 0.35,0.193 0.609,0.281c0.261,0.087 0.59,0.178 0.989,0.274c0.438,0.111 0.826,0.235 1.164,0.369c0.338,0.136 0.621,0.301 0.844,0.496c0.224,0.195 0.395,0.421 0.51,0.68c0.114,0.259 0.172,0.559 0.172,0.901l0.001,0.024c-0.001,0.39 -0.075,0.74 -0.22,1.05c-0.147,0.31 -0.35,0.573 -0.61,0.788c-0.259,0.215 -0.574,0.378 -0.937,0.489c-0.366,0.111 -0.768,0.167 -1.205,0.167" style="fill:#fff;fill-rule:nonzero;"/><path d="M121.199,30.592l-2.649,0l0,-1.36l6.777,0l0,1.36l-2.649,0l0,6.992l-1.479,0l0,-6.992Z" style="fill:#fff;fill-rule:nonzero;"/><path d="M133.186,37.716c-0.541,0 -1.03,-0.078 -1.468,-0.232c-0.437,-0.156 -0.811,-0.389 -1.122,-0.699c-0.309,-0.31 -0.549,-0.694 -0.716,-1.151c-0.167,-0.458 -0.25,-0.988 -0.25,-1.594l0,-4.808l1.455,0l0,4.75c0,0.779 0.19,1.371 0.566,1.777c0.376,0.405 0.894,0.608 1.558,0.608c0.657,0 1.172,-0.195 1.548,-0.584c0.376,-0.39 0.565,-0.97 0.565,-1.743l0,-4.808l1.456,0l0,4.737c0,0.621 -0.086,1.166 -0.257,1.635c-0.171,0.469 -0.412,0.861 -0.722,1.175c-0.31,0.314 -0.686,0.549 -1.128,0.705c-0.441,0.154 -0.936,0.232 -1.485,0.232" style="fill:#fff;fill-rule:nonzero;"/><path d="M141.678,29.231l3.114,0c0.653,0 1.251,0.105 1.796,0.316c0.545,0.211 1.014,0.504 1.407,0.878c0.395,0.373 0.699,0.813 0.913,1.318c0.215,0.506 0.323,1.052 0.323,1.641l0,0.024c0,0.589 -0.108,1.137 -0.323,1.646c-0.214,0.51 -0.518,0.951 -0.913,1.324c-0.393,0.374 -0.862,0.669 -1.407,0.884c-0.545,0.215 -1.143,0.322 -1.796,0.322l-3.114,0l0,-8.353Zm3.102,7.028c0.438,0 0.836,-0.069 1.193,-0.209c0.358,-0.14 0.663,-0.336 0.913,-0.588c0.251,-0.251 0.445,-0.55 0.585,-0.899c0.139,-0.346 0.209,-0.724 0.209,-1.131l0,-0.024c0,-0.408 -0.07,-0.787 -0.209,-1.138c-0.14,-0.351 -0.334,-0.654 -0.585,-0.904c-0.25,-0.253 -0.555,-0.45 -0.913,-0.595c-0.357,-0.144 -0.755,-0.215 -1.193,-0.215l-1.646,0l0,5.703l1.646,0Z" style="fill:#fff;fill-rule:nonzero;"/><rect x="153.975" y="29.231" width="1.456" height="8.353" style="fill:#fff;"/><path d="M164.542,37.727c-0.645,0 -1.232,-0.113 -1.766,-0.34c-0.533,-0.226 -0.99,-0.535 -1.372,-0.925c-0.382,-0.389 -0.68,-0.844 -0.895,-1.366c-0.215,-0.521 -0.321,-1.076 -0.321,-1.664l0,-0.024c0,-0.589 0.106,-1.144 0.321,-1.665c0.215,-0.521 0.517,-0.979 0.907,-1.372c0.39,-0.394 0.851,-0.707 1.384,-0.937c0.533,-0.23 1.122,-0.346 1.766,-0.346c0.644,0 1.233,0.114 1.766,0.34c0.533,0.227 0.99,0.535 1.372,0.925c0.382,0.39 0.68,0.845 0.896,1.366c0.213,0.522 0.321,1.076 0.321,1.665l0,0.024c0,0.589 -0.108,1.143 -0.321,1.664c-0.216,0.521 -0.518,0.978 -0.908,1.373c-0.389,0.393 -0.851,0.705 -1.383,0.936c-0.534,0.231 -1.122,0.346 -1.767,0.346m0.024,-1.349c0.412,0 0.789,-0.077 1.135,-0.232c0.345,-0.155 0.639,-0.366 0.885,-0.632c0.245,-0.266 0.438,-0.579 0.575,-0.937c0.14,-0.358 0.209,-0.74 0.209,-1.145l0,-0.024c0,-0.406 -0.069,-0.789 -0.209,-1.152c-0.137,-0.362 -0.332,-0.675 -0.581,-0.942c-0.25,-0.267 -0.549,-0.48 -0.896,-0.639c-0.35,-0.159 -0.73,-0.238 -1.142,-0.238c-0.411,0 -0.789,0.077 -1.136,0.232c-0.343,0.156 -0.637,0.367 -0.885,0.632c-0.244,0.267 -0.437,0.579 -0.574,0.938c-0.139,0.357 -0.209,0.739 -0.209,1.145l0,0.024c0,0.405 0.07,0.789 0.209,1.151c0.137,0.362 0.332,0.676 0.58,0.942c0.251,0.267 0.549,0.48 0.898,0.639c0.349,0.159 0.729,0.238 1.141,0.238" style="fill:#fff;fill-rule:nonzero;"/><path d="M176.518,37.704c-0.645,0 -1.261,-0.109 -1.85,-0.328c-0.588,-0.219 -1.133,-0.556 -1.634,-1.009l0.882,-1.05c0.407,0.351 0.816,0.618 1.23,0.806c0.413,0.186 0.883,0.28 1.407,0.28c0.454,0 0.814,-0.095 1.08,-0.287c0.267,-0.19 0.401,-0.445 0.401,-0.764l0,-0.023c0,-0.151 -0.027,-0.284 -0.079,-0.399c-0.051,-0.116 -0.146,-0.225 -0.286,-0.329c-0.141,-0.103 -0.332,-0.199 -0.575,-0.287c-0.244,-0.087 -0.56,-0.173 -0.95,-0.261c-0.447,-0.104 -0.844,-0.221 -1.191,-0.353c-0.346,-0.131 -0.638,-0.29 -0.873,-0.476c-0.235,-0.188 -0.416,-0.416 -0.54,-0.687c-0.123,-0.27 -0.184,-0.597 -0.184,-0.979l0,-0.023c0,-0.358 0.071,-0.686 0.213,-0.984c0.142,-0.299 0.338,-0.553 0.587,-0.764c0.248,-0.211 0.547,-0.376 0.896,-0.495c0.349,-0.119 0.73,-0.18 1.144,-0.18c0.612,0 1.163,0.09 1.652,0.269c0.489,0.179 0.949,0.439 1.378,0.782l-0.787,1.109c-0.382,-0.278 -0.76,-0.491 -1.134,-0.638c-0.374,-0.147 -0.752,-0.221 -1.133,-0.221c-0.429,0 -0.763,0.096 -1.003,0.286c-0.238,0.192 -0.358,0.426 -0.358,0.704l0,0.025c0,0.159 0.028,0.299 0.084,0.422c0.056,0.125 0.157,0.236 0.305,0.335c0.148,0.099 0.351,0.193 0.61,0.281c0.26,0.087 0.589,0.178 0.988,0.274c0.438,0.111 0.827,0.235 1.165,0.369c0.338,0.136 0.621,0.301 0.844,0.496c0.223,0.195 0.394,0.421 0.509,0.68c0.115,0.259 0.173,0.559 0.173,0.901l0,0.024c0,0.39 -0.074,0.74 -0.219,1.05c-0.147,0.31 -0.35,0.573 -0.61,0.788c-0.259,0.215 -0.574,0.378 -0.937,0.489c-0.366,0.111 -0.768,0.167 -1.205,0.167" style="fill:#fff;fill-rule:nonzero;"/></g></svg>