<?xml version="1.0" encoding="UTF-8" standalone="no"?><!DOCTYPE svg PUBLIC "-//W3C//DTD SVG 1.1//EN" "http://www.w3.org/Graphics/SVG/1.1/DTD/svg11.dtd"><svg width="100%" height="100%" viewBox="0 0 286 286" version="1.1" xmlns="http://www.w3.org/2000/svg" xmlns:xlink="http://www.w3.org/1999/xlink" xml:space="preserve" xmlns:serif="http://www.serif.com/" style="fill-rule:evenodd;clip-rule:evenodd;stroke-linecap:round;stroke-linejoin:round;"><g><path d="M143.34,78.409l-0.219,77.076l-67.08,-38.728l0.219,-77.077l67.08,38.729Z" style="fill:none;"/><path d="M132.947,72.409l10.393,6l-0.035,12" style="fill:none;stroke:#fff;stroke-width:1px;"/><path d="M143.256,108.1l-0.076,26.539" style="fill:none;stroke:#fff;stroke-width:1px;stroke-dasharray:17.69,17.69;"/><path d="M143.154,143.485l-0.033,12l-10.393,-6" style="fill:none;stroke:#fff;stroke-width:1px;"/><path d="M117.297,140.575l-23.147,-13.363" style="fill:none;stroke:#fff;stroke-width:1px;stroke-dasharray:17.82,17.82;"/><path d="M86.434,122.756l-10.393,-6l0.035,-12" style="fill:none;stroke:#fff;stroke-width:1px;"/><path d="M76.125,87.065l0.076,-26.539" style="fill:none;stroke:#fff;stroke-width:1px;stroke-dasharray:17.69,17.69;"/><path d="M76.226,51.68l0.034,-12l10.393,6" style="fill:none;stroke:#fff;stroke-width:1px;"/><path d="M102.084,54.59l23.147,13.363" style="fill:none;stroke:#fff;stroke-width:1px;stroke-dasharray:17.82,17.82;"/><path d="M143.34,78.409l66.641,-38.728l-0.219,77.077l-66.641,38.727l0.219,-77.076Z" style="fill:none;"/><path d="M143.306,90.409l0.034,-12l10.375,-6.029" style="fill:none;stroke:#fff;stroke-width:1px;"/><path d="M169.012,63.49l22.945,-13.335" style="fill:none;stroke:#fff;stroke-width:1px;stroke-dasharray:17.69,17.69;"/><path d="M199.605,45.711l10.375,-6.029l-0.033,12" style="fill:none;stroke:#fff;stroke-width:1px;"/><path d="M209.896,69.374l-0.075,26.537" style="fill:none;stroke:#fff;stroke-width:1px;stroke-dasharray:17.69,17.69;"/><path d="M209.797,104.757l-0.035,12l-10.375,6.029" style="fill:none;stroke:#fff;stroke-width:1px;"/><path d="M184.09,131.676l-22.945,13.334" style="fill:none;stroke:#fff;stroke-width:1px;stroke-dasharray:17.69,17.69;"/><path d="M153.496,149.456l-10.375,6.029l0.033,-12" style="fill:none;stroke:#fff;stroke-width:1px;"/><path d="M143.205,125.794l0.075,-26.539" style="fill:none;stroke:#fff;stroke-width:1px;stroke-dasharray:17.69,17.69;"/><path d="M76.26,39.68l66.642,-38.728l67.079,38.729l-66.641,38.728l-67.08,-38.729Z" style="fill:none;"/><path d="M86.652,45.68l-10.393,-6l10.375,-6.029" style="fill:none;stroke:#fff;stroke-width:1px;"/><path d="M101.932,24.761l22.945,-13.335" style="fill:none;stroke:#fff;stroke-width:1px;stroke-dasharray:17.69,17.69;"/><path d="M132.525,6.982l10.375,-6.029l10.393,6" style="fill:none;stroke:#fff;stroke-width:1px;"/><path d="M168.725,15.862l23.148,13.365" style="fill:none;stroke:#fff;stroke-width:1px;stroke-dasharray:17.82,17.82;"/><path d="M199.588,33.681l10.393,6l-10.375,6.029" style="fill:none;stroke:#fff;stroke-width:1px;"/><path d="M184.309,54.6l-22.945,13.334" style="fill:none;stroke:#fff;stroke-width:1px;stroke-dasharray:17.69,17.69;"/><path d="M153.715,72.38l-10.375,6.029l-10.393,-6" style="fill:none;stroke:#fff;stroke-width:1px;"/><path d="M117.516,63.499l-23.147,-13.363" style="fill:none;stroke:#fff;stroke-width:1px;stroke-dasharray:17.82,17.82;"/><path d="M68.34,208.409l-0.219,77.076l-67.08,-38.728l0.219,-77.077l67.08,38.729Z" style="fill:none;"/><path d="M57.947,202.409l10.393,6l-0.035,12" style="fill:none;stroke:#fff;stroke-width:1px;"/><path d="M68.256,238.1l-0.076,26.539" style="fill:none;stroke:#fff;stroke-width:1px;stroke-dasharray:17.69,17.69;"/><path d="M68.154,273.485l-0.033,12l-10.393,-6" style="fill:none;stroke:#fff;stroke-width:1px;"/><path d="M42.297,270.575l-23.147,-13.363" style="fill:none;stroke:#fff;stroke-width:1px;stroke-dasharray:17.82,17.82;"/><path d="M11.434,252.756l-10.393,-6l0.035,-12" style="fill:none;stroke:#fff;stroke-width:1px;"/><path d="M1.125,217.065l0.076,-26.539" style="fill:none;stroke:#fff;stroke-width:1px;stroke-dasharray:17.69,17.69;"/><path d="M1.226,181.68l0.034,-12l10.393,6" style="fill:none;stroke:#fff;stroke-width:1px;"/><path d="M27.084,184.59l23.147,13.363" style="fill:none;stroke:#fff;stroke-width:1px;stroke-dasharray:17.82,17.82;"/><path d="M68.34,208.409l66.641,-38.728l-0.219,77.077l-66.641,38.727l0.219,-77.076Z" style="fill:none;"/><path d="M68.306,220.409l0.034,-12l10.375,-6.029" style="fill:none;stroke:#fff;stroke-width:1px;"/><path d="M94.012,193.49l22.945,-13.335" style="fill:none;stroke:#fff;stroke-width:1px;stroke-dasharray:17.69,17.69;"/><path d="M124.605,175.711l10.375,-6.029l-0.033,12" style="fill:none;stroke:#fff;stroke-width:1px;"/><path d="M134.896,199.374l-0.075,26.537" style="fill:none;stroke:#fff;stroke-width:1px;stroke-dasharray:17.69,17.69;"/><path d="M134.797,234.757l-0.035,12l-10.375,6.029" style="fill:none;stroke:#fff;stroke-width:1px;"/><path d="M109.09,261.676l-22.945,13.334" style="fill:none;stroke:#fff;stroke-width:1px;stroke-dasharray:17.69,17.69;"/><path d="M78.496,279.456l-10.375,6.029l0.033,-12" style="fill:none;stroke:#fff;stroke-width:1px;"/><path d="M68.205,255.794l0.075,-26.539" style="fill:none;stroke:#fff;stroke-width:1px;stroke-dasharray:17.69,17.69;"/><path d="M1.26,169.68l66.642,-38.728l67.079,38.729l-66.641,38.728l-67.08,-38.729Z" style="fill:none;"/><path d="M11.652,175.68l-10.393,-6l10.375,-6.029" style="fill:none;stroke:#fff;stroke-width:1px;"/><path d="M26.932,154.761l22.945,-13.335" style="fill:none;stroke:#fff;stroke-width:1px;stroke-dasharray:17.69,17.69;"/><path d="M57.525,136.982l10.375,-6.029l10.393,6" style="fill:none;stroke:#fff;stroke-width:1px;"/><path d="M93.725,145.862l23.148,13.365" style="fill:none;stroke:#fff;stroke-width:1px;stroke-dasharray:17.82,17.82;"/><path d="M124.588,163.681l10.393,6l-10.375,6.029" style="fill:none;stroke:#fff;stroke-width:1px;"/><path d="M109.309,184.6l-22.945,13.334" style="fill:none;stroke:#fff;stroke-width:1px;stroke-dasharray:17.69,17.69;"/><path d="M78.715,202.38l-10.375,6.029l-10.393,-6" style="fill:none;stroke:#fff;stroke-width:1px;"/><path d="M42.516,193.499l-23.147,-13.363" style="fill:none;stroke:#fff;stroke-width:1px;stroke-dasharray:17.82,17.82;"/><path d="M218.466,205.789l-0.219,76.931l-66.952,-38.656l0.218,-76.93l66.953,38.655Z" style="fill:#7fa5be;fill-rule:nonzero;"/><path d="M218.466,205.789l66.515,-38.654l-0.218,76.929l-66.516,38.656l0.219,-76.931Z" style="fill:#3c5260;fill-rule:nonzero;"/><path d="M151.513,167.133l66.516,-38.654l66.952,38.655l-66.515,38.654l-66.953,-38.655Z" style="fill:#638198;fill-rule:nonzero;"/></g></svg>