<?xml version="1.0" encoding="UTF-8" standalone="no"?><!DOCTYPE svg PUBLIC "-//W3C//DTD SVG 1.1//EN" "http://www.w3.org/Graphics/SVG/1.1/DTD/svg11.dtd"><svg width="100%" height="100%" viewBox="0 0 99 96" version="1.1" xmlns="http://www.w3.org/2000/svg" xmlns:xlink="http://www.w3.org/1999/xlink" xml:space="preserve" xmlns:serif="http://www.serif.com/" style="fill-rule:evenodd;clip-rule:evenodd;stroke-linejoin:round;stroke-miterlimit:1.41421;"><g id="cfm_logo"><path d="M17.5,60.618c3.217,-1.128 5.996,-3.285 7.723,-6.225c1.138,-1.938 2.046,-4.494 2,-7.689c-0.007,-0.489 -0.176,-0.972 -0.506,-1.333c-0.183,-0.2 -0.403,-0.361 -0.637,-0.36c-0.242,0.002 -0.41,0.245 -0.339,0.477c0.192,0.617 0.561,2.239 -0.012,4.285c-0.563,2.009 -1.88,3.717 -3.61,4.882c-2.528,1.702 -7.058,3.342 -11.033,-2.657c0,0 -5.171,-8.097 0.025,-16.249c0.985,-1.544 2.383,-2.798 4.081,-3.485c2.221,-0.897 5.386,-1.064 8.251,2.862c-1.767,-0.82 -4.007,0.256 -5.004,2.402c-0.996,2.147 -0.371,4.552 1.397,5.372c1.767,0.821 4.008,-0.255 5.004,-2.401c0.079,-0.171 0.146,-0.343 0.206,-0.516c0.461,-1.162 0.709,-3.369 -1.281,-6.844c-0.825,-1.438 -2.066,-2.601 -3.579,-3.277c-1.857,-0.829 -4.689,-1.372 -8.645,-0.299c-1.952,0.53 -3.774,1.466 -5.321,2.769c-3.39,2.856 -8.528,9.273 -5.027,19.555c0,0 4.173,12.986 16.307,8.731" style="fill:#fff;fill-rule:nonzero;"/><path d="M33.278,33.715c0.247,-0.34 0.476,-0.337 0.631,-0.267c0.109,0.049 0.193,0.141 0.249,0.247c2.27,4.32 1.262,9.703 1.007,10.829c-0.04,0.176 -0.164,0.487 -0.269,0.635c-0.508,0.724 -1.01,-0.052 -1.01,-0.052c-3.612,-5.335 -0.608,-11.392 -0.608,-11.392m-0.173,13.316c3.482,0.478 6.761,-2.464 7.323,-6.571c0.564,-4.106 -1.803,-7.823 -5.285,-8.3c-3.482,-0.477 -6.761,2.465 -7.324,6.572c-0.563,4.107 1.804,7.823 5.286,8.299" style="fill:#fff;fill-rule:nonzero;"/><path d="M41.486,29.935l1.278,11.894c0,0 -1.278,1.278 -1.334,1.722l0.389,0.195c0,0 1.117,-1.76 3.016,-2.326c1.709,-0.508 2.959,-1.648 3.376,-2.204l-0.167,-0.334c0,0 -0.446,0.418 -0.583,0.556c-0.39,0.39 -0.667,0.306 -0.667,0.306l-1.029,-8.753c0,0 0.108,-4.544 2.46,-5.353c0.08,-0.027 0.168,0.022 0.192,0.104c0.137,0.468 0.506,2.474 1.278,10.988c0.012,0.131 0.04,0.273 0.053,0.412c0.023,0.258 -0.066,0.489 -0.301,0.685l-0.347,0.278l0.068,0.497c0,0 1.601,-1.362 3.023,-1.748c2.356,-0.639 2.869,-2.075 2.869,-2.075l-0.125,-0.343l-0.263,0.265c-1.209,1.236 -1.292,-0.765 -1.292,-0.765l-0.39,-5.279c0,0 -0.494,-3.06 2.423,-5.599c0.128,-0.112 0.331,-0.037 0.354,0.132l1.365,9.766c0.039,0.276 -0.054,0.555 -0.251,0.752l-0.399,0.4l0.149,0.37c0,0 1.292,-1.237 2.828,-1.638c1.275,-0.333 2.055,-0.676 2.673,-1.259l-0.027,-0.375l-0.595,0.178c-0.187,0.056 -0.357,-0.057 -0.378,-0.252l-1.073,-11.568c-0.049,-0.463 -0.388,-0.853 -0.846,-0.937c-1.176,-0.217 -3.874,1.429 -6.458,6.889l-0.084,-1.834c0,0 0.153,-1.361 -1.292,-1.25c-1.446,0.111 -4.752,2.39 -5.864,5.946c0,0 -0.861,-3.889 1.64,-7.113l0,-0.39c0,0 -2.101,1.487 -4.728,5.883c-0.18,0.304 -0.338,0.619 -0.477,0.945c-0.268,0.628 -1.214,2.676 -2.131,3.01l0.083,0.333c0,0 0.806,-0.167 1.584,-1.111" style="fill:#fff;fill-rule:nonzero;"/><path d="M68.219,16.43c1.223,-1.278 1.778,0.222 1.778,0.222c0.138,0.454 0.214,0.855 0.249,1.209c0.091,0.915 0.057,1.445 -0.855,2.499c-1.274,1.471 -2.006,3.281 -2.006,3.281c-0.25,0.625 -0.389,-0.042 -0.389,-0.042c-0.834,-5.113 1.223,-7.169 1.223,-7.169m1.111,12.394c0,0 5.708,-0.688 5.889,-7.268c0.01,-0.38 -0.223,-0.731 -0.582,-0.856c-0.199,-0.07 -0.445,-0.115 -0.728,-0.087c-0.126,0.012 -0.212,0.131 -0.179,0.253c0.233,0.841 0.883,3.979 -1.779,5.739c-0.744,0.492 -1.657,0.689 -2.517,0.454c-0.641,-0.175 -1.278,-0.583 -1.414,-1.502c-0.012,-0.075 -0.02,-0.153 -0.024,-0.235c-0.111,-2.223 2.668,-4.447 2.668,-4.447l1.429,-0.952c0.119,-0.079 0.241,-0.152 0.363,-0.225c0.352,-0.211 1.298,-0.938 0.876,-2.491c0,0 -0.736,-4.529 -6.114,-2.445c0,0 -6.113,2.224 -4.557,9.948c0,0 1.223,5.114 6.669,4.114" style="fill:#fff;fill-rule:nonzero;"/><path d="M43.879,53.84c-0.02,-2.631 -0.784,-5.078 -3.129,-6.078c-1.398,-0.597 -3.016,-0.299 -4.371,0.208c-2.32,0.869 -4.265,2.522 -5.56,4.635c-3.002,4.901 -2.782,11.175 -2.782,11.175c-0.08,0.932 -0.088,2.546 -0.055,4.465c-3.021,2.723 -11.447,9.952 -17.813,11.927c-0.985,0.305 -2.035,0.376 -3.038,0.131c-1.417,-0.347 -3.045,-1.357 -2.854,-4.185c0,0 0.167,-5.502 7.337,-8.253c0,0 3.721,-1.522 5.831,-0.579c0.851,0.38 1.268,1.339 0.992,2.229c-0.364,1.174 -2.398,3.19 -6.351,5.353c-0.319,0.175 -0.319,0.175 -0.222,0.417c0,0 5.833,-2.091 7.261,-5.111c0.618,-1.308 0.066,-2.876 -1.202,-3.572c-1.513,-0.831 -4.522,-1.169 -10.144,2.264c0,0 -6.723,3.85 -6.811,9.356c-0.048,3.03 2.46,5.437 5.486,5.267c2.214,-0.124 5.384,-1.097 9.828,-3.953c0,0 5.446,-3.351 11.737,-9.606c0.158,6.033 0.601,13.775 0.601,13.775c0,8.253 -4.251,10.837 -4.251,10.837l0.333,0.584c9.587,-6.169 8.753,-15.84 8.753,-15.84l-0.153,-14.525c5.064,-4.281 8.483,-4.677 9.824,-4.065l0,-0.25c0,0 -3.181,-1.824 -9.837,3.136l0,-0.052c-0.026,-3.69 0.57,-6.468 1.029,-8.05c0.338,-1.167 0.855,-2.292 1.654,-3.208c2.605,-2.99 4.654,-1.629 5.705,-0.441c-0.746,0.045 -2.093,0.447 -2.81,2.634c-0.146,0.448 -0.208,0.921 -0.175,1.392c0,0.012 0.001,0.024 0.002,0.037c0.158,2.011 2.578,2.997 4.014,1.579c0.287,-0.284 0.549,-0.671 0.751,-1.195c0,0 0.42,-1.05 0.421,-2.334c0,-0.035 -0.001,-0.069 -0.001,-0.104" style="fill:#fff;fill-rule:nonzero;"/><path d="M51.588,62.934c-0.15,0.086 -0.34,-0.021 -0.348,-0.194l-0.611,-13.381c0,0 0.166,-2.418 1.75,-2.584c0,0 -0.125,-1.334 -2.315,0.742c-0.641,0.608 -1.167,1.326 -1.59,2.102c-0.561,1.029 -1.603,2.842 -2.458,3.784c-0.189,0.208 -0.407,0.385 -0.643,0.537l-0.946,0.604l0.116,0.817l1.037,-0.61c0.178,-0.104 0.404,0.01 0.424,0.215c0.177,1.822 0.808,8.788 0.363,10.949c-0.035,0.172 -0.107,0.333 -0.21,0.477c-0.311,0.436 -1.09,1.48 -1.614,1.808l0.333,0.416c0,0 2.501,-2.584 4.419,-3.501c0,0 3.251,-1.667 4.001,-3.251l-0.166,-0.5c0,0 -0.178,0.789 -1.542,1.57" style="fill:#fff;fill-rule:nonzero;"/><path d="M62.217,56.861l-0.084,-0.417c0,0 -1.861,1.696 -2.084,-0.167l-0.083,-8.086c0,0 0.083,-5.085 3.418,-7.336l0.75,14.339l-0.667,0.75l0.167,0.333c0,0 1.75,-1.584 2.834,-2.084c0,0 3.168,-1 4.168,-3.001l-0.166,-0.5c0,0 -0.834,1.334 -1.668,1.084c0,0 -0.917,0 -0.917,-1.584l0.167,-9.504c0,0 0.334,-2.251 -1.334,-2.584c0,0 -3.474,-0.226 -6.892,6.694c0,0 -0.858,-4.39 0.532,-4.53l-0.059,-0.58c0,0 -2.417,0.333 -3.585,4.918c0,0 -0.667,3.852 -3.084,5.169l0,1c0,0 1.25,-0.667 1.667,-1c0,0 0.917,9.003 0.334,10.671c0,0 -0.417,1.167 -0.834,1.083l0.25,0.667c0,0 2.634,-2.504 3.559,-2.903c1.286,-0.555 2.86,-1.098 3.611,-2.432" style="fill:#fff;fill-rule:nonzero;"/><path d="M48.012,45.96c1.5,-1.309 2.262,-2.89 1.701,-3.531c-0.559,-0.642 -2.229,-0.102 -3.729,1.207c-1.499,1.308 -2.261,2.889 -1.701,3.531c0.56,0.642 2.229,0.102 3.729,-1.207" style="fill:#fff;fill-rule:nonzero;"/><path d="M78.542,43.606c0,0 -1.584,1.75 -2.334,-0.834c0,0 -2.001,-7.419 4.918,-11.254c0,0 1.584,7.919 -2.584,12.088m-7.586,-2.335c0,0 -1.501,7.587 3.418,7.17c0,0 4.085,0.083 7.419,-8.503c0,0 0.334,4.585 3.085,3.334l5.335,-2.667l0.084,-0.584c0,0 -3.252,1.334 -3.502,0.333c0,0 -1.584,-17.59 -0.917,-27.76c0,0 0.185,-12.091 5.336,-10.921c4.772,1.084 3.292,12.144 3.126,14.255c0,0 -0.903,6.169 -3.237,6.114c-2.636,-0.063 -3.397,-4.78 -3.168,-6.996c0.056,-0.554 0.25,-1.252 0.461,-1.891c0.081,1.06 0.696,1.967 1.88,1.706c1.865,-0.41 1.525,-4.697 -0.235,-4.413c-0.421,0.067 -0.764,0.286 -1.025,0.592c0,0 -0.029,0.033 -0.078,0.099c-0.024,0.032 -0.047,0.064 -0.07,0.097c-0.589,0.834 -2.674,4.33 -1.047,10.111c0.153,0.542 0.409,1.049 0.722,1.517c0.58,0.865 1.645,2.031 3.087,1.818c0,0 3.919,0.25 4.335,-9.837c0,0 1.098,-12.477 -4.57,-14.478c-3.092,-1.091 -7.531,-0.234 -9.727,9.281c-0.667,2.891 -1,7.171 -0.542,20.452c0,0 -8.503,1.001 -10.17,11.171" style="fill:#fff;fill-rule:nonzero;"/><path d="M83.892,69.949l-1.001,-16.673c0,0 0.084,-2.084 -1.5,-2.334c0,0 -4.585,-1.417 -7.587,7.003c0,0 0.834,-3.668 -2.751,-2.918c0,0 -4.585,0.5 -7.419,9.92c0,0 -0.5,-5.252 1.167,-6.752l0,-0.667c0,0 -3.168,0.75 -4.919,4.585c0,0 -1.667,3.418 -3.835,4.585l0.084,0.584c0,0 0.75,-0.167 1.667,-1.251c0,0 0.334,14.506 0.25,21.008c0,0 -0.676,1.383 -2.501,3.168l0.25,0.334c0,0 4.338,-3.946 6.336,-4.669c1.471,-0.532 2.585,-1.167 3.418,-2.334l0,-0.5c0,0 -1.584,1 -1.834,0.583c0,0 -0.5,-9.92 0.334,-15.673c0,0 1.009,-5.873 3.927,-9.43c0.117,-0.143 0.349,-0.07 0.362,0.114c0.229,2.982 1.383,18.603 0.629,20.487c0,0 -0.191,0.85 -1.084,2.001l-0.148,0.84c0,0 2.719,-2.494 4.317,-3.007c2.334,-0.751 3.001,-1.751 3.835,-3.001l-0.251,-0.501c0,0 -1.266,1.418 -1.516,0.918l-0.401,-13.589c0,0 0.167,-5.756 3.668,-8.67c0,0 0.667,-2.001 0.834,18.34c0,0 0.083,1.417 -0.917,2.001l0,0.834c0,0 2.1,-1.882 3.835,-2.668c1.417,-0.643 4.001,-1.584 4.668,-3.085l-0.083,-0.583c0,0 -1.668,1.834 -1.834,1" style="fill:#fff;fill-rule:nonzero;"/><path d="M90.854,59.894c-0.26,0.732 -0.403,-0.049 -0.403,-0.049c-0.866,-5.989 1.267,-8.398 1.267,-8.398c1.269,-1.497 1.845,0.26 1.845,0.26c0.143,0.532 0.222,1.002 0.258,1.416c0.094,1.073 0.058,1.693 -0.888,2.928c-1.32,1.724 -2.079,3.843 -2.079,3.843m7.521,-3.444c-0.208,-0.082 -0.462,-0.134 -0.755,-0.103c-0.13,0.015 -0.221,0.154 -0.186,0.297c0.241,0.985 0.915,4.661 -1.845,6.723c-0.771,0.576 -1.718,0.807 -2.611,0.532c-0.664,-0.205 -1.326,-0.684 -1.467,-1.76c-0.011,-0.088 -0.019,-0.18 -0.023,-0.275c-0.115,-2.605 2.766,-5.208 2.766,-5.208l1.482,-1.116c0.123,-0.093 0.25,-0.179 0.377,-0.265c0.364,-0.246 1.346,-1.099 0.908,-2.916c0,0 -0.764,-5.307 -6.34,-2.865c0,0 -6.341,2.604 -4.726,11.654c0,0 1.267,5.989 6.916,4.817c0,0 5.92,-0.804 6.107,-8.512c0.011,-0.446 -0.23,-0.858 -0.603,-1.003" style="fill:#fff;fill-rule:nonzero;"/></g></svg>