<?xml version="1.0" encoding="UTF-8" standalone="no"?><!DOCTYPE svg PUBLIC "-//W3C//DTD SVG 1.1//EN" "http://www.w3.org/Graphics/SVG/1.1/DTD/svg11.dtd"><svg width="100%" height="100%" viewBox="0 0 329 329" version="1.1" xmlns="http://www.w3.org/2000/svg" xmlns:xlink="http://www.w3.org/1999/xlink" xml:space="preserve" xmlns:serif="http://www.serif.com/" style="fill-rule:evenodd;clip-rule:evenodd;stroke-linecap:round;stroke-linejoin:round;"><g id="icon_vr"><g><g opacity="0.300003"><path d="M294.803,76.643l10.393,6l-0.035,12" style="fill:none;stroke:#fff;stroke-width:1px;"/><path d="M305.082,122.449l-0.275,97.321" style="fill:none;stroke:#fff;stroke-width:1px;stroke-dasharray:27.81,27.81;"/><path d="M304.767,233.673l-0.034,12l-10.393,-6" style="fill:none;stroke:#fff;stroke-width:1px;"/><path d="M270.12,225.69l-84.771,-48.943" style="fill:none;stroke:#fff;stroke-width:1px;stroke-dasharray:27.97,27.97;"/><path d="M173.238,169.755l-10.393,-6l0.036,-12" style="fill:none;stroke:#fff;stroke-width:1px;"/><path d="M162.959,123.95l0.275,-97.322" style="fill:none;stroke:#fff;stroke-width:1px;stroke-dasharray:27.81,27.81;"/><path d="M163.274,12.725l0.034,-12l10.393,6" style="fill:none;stroke:#fff;stroke-width:1px;"/><path d="M197.922,20.708l84.771,48.943" style="fill:none;stroke:#fff;stroke-width:1px;stroke-dasharray:27.97,27.97;"/></g></g><g><g opacity="0.300003"><path d="M23.161,94.643l0.034,-12l10.375,-6.029" style="fill:none;stroke:#fff;stroke-width:1px;"/><path d="M57.611,62.641l84.146,-48.9" style="fill:none;stroke:#fff;stroke-width:1px;stroke-dasharray:27.81,27.81;"/><path d="M153.779,6.755l10.375,-6.029l-0.034,12" style="fill:none;stroke:#fff;stroke-width:1px;"/><path d="M164.041,40.532l-0.275,97.322" style="fill:none;stroke:#fff;stroke-width:1px;stroke-dasharray:27.81,27.81;"/><path d="M163.727,151.756l-0.035,12l-10.375,6.03" style="fill:none;stroke:#fff;stroke-width:1px;"/><path d="M129.275,183.758l-84.146,48.9" style="fill:none;stroke:#fff;stroke-width:1px;stroke-dasharray:27.81,27.81;"/><path d="M33.107,239.644l-10.375,6.029l0.034,-12" style="fill:none;stroke:#fff;stroke-width:1px;"/><path d="M22.846,205.868l0.275,-97.322" style="fill:none;stroke:#fff;stroke-width:1px;stroke-dasharray:27.81,27.81;"/></g></g><path d="M163.721,164.369l-0.146,51.79l-45.075,-26.022l0.148,-51.791l45.073,26.023Z" style="fill:#557081;fill-rule:nonzero;"/><path d="M163.721,164.369l44.779,-26.023l-0.146,51.791l-44.779,26.022l0.146,-51.79Z" style="fill:#7fa5be;fill-rule:nonzero;"/><path d="M118.647,138.345l44.779,-26.022l45.074,26.022l-44.78,26.023l-45.073,-26.023Z" style="fill:#638198;fill-rule:nonzero;"/><path d="M153.803,158.643l10.393,6l-0.035,12" style="fill:none;stroke:#fff;stroke-width:1px;"/><path d="M164.082,204.449l-0.275,97.321" style="fill:none;stroke:#fff;stroke-width:1px;stroke-dasharray:27.81,27.81;"/><path d="M163.767,315.673l-0.034,12l-10.393,-6" style="fill:none;stroke:#fff;stroke-width:1px;"/><path d="M129.12,307.69l-84.771,-48.943" style="fill:none;stroke:#fff;stroke-width:1px;stroke-dasharray:27.97,27.97;"/><path d="M32.238,251.755l-10.393,-6l0.036,-12" style="fill:none;stroke:#fff;stroke-width:1px;"/><path d="M21.959,205.95l0.275,-97.322" style="fill:none;stroke:#fff;stroke-width:1px;stroke-dasharray:27.81,27.81;"/><path d="M22.274,94.725l0.034,-12l10.393,6" style="fill:none;stroke:#fff;stroke-width:1px;"/><path d="M56.922,102.708l84.771,48.943" style="fill:none;stroke:#fff;stroke-width:1px;stroke-dasharray:27.97,27.97;"/><path d="M164.161,176.643l0.034,-12l10.375,-6.029" style="fill:none;stroke:#fff;stroke-width:1px;"/><path d="M198.611,144.641l84.146,-48.9" style="fill:none;stroke:#fff;stroke-width:1px;stroke-dasharray:27.81,27.81;"/><path d="M294.779,88.755l10.375,-6.029l-0.034,12" style="fill:none;stroke:#fff;stroke-width:1px;"/><path d="M305.041,122.532l-0.275,97.322" style="fill:none;stroke:#fff;stroke-width:1px;stroke-dasharray:27.81,27.81;"/><path d="M304.727,233.756l-0.035,12l-10.375,6.03" style="fill:none;stroke:#fff;stroke-width:1px;"/><path d="M270.275,265.758l-84.146,48.9" style="fill:none;stroke:#fff;stroke-width:1px;stroke-dasharray:27.81,27.81;"/><path d="M174.107,321.644l-10.375,6.029l0.034,-12" style="fill:none;stroke:#fff;stroke-width:1px;"/><path d="M163.846,287.868l0.275,-97.322" style="fill:none;stroke:#fff;stroke-width:1px;stroke-dasharray:27.81,27.81;"/><path d="M32.701,88.725l-10.393,-6l10.375,-6.03" style="fill:none;stroke:#fff;stroke-width:1px;"/><path d="M56.726,62.723l84.146,-48.9" style="fill:none;stroke:#fff;stroke-width:1px;stroke-dasharray:27.81,27.81;"/><path d="M152.893,6.837l10.375,-6.029l10.393,6" style="fill:none;stroke:#fff;stroke-width:1px;"/><path d="M197.881,20.792l84.771,48.943" style="fill:none;stroke:#fff;stroke-width:1px;stroke-dasharray:27.97,27.97;"/><path d="M294.762,76.726l10.393,6l-10.375,6.029" style="fill:none;stroke:#fff;stroke-width:1px;"/><path d="M270.737,102.727l-84.146,48.9" style="fill:none;stroke:#fff;stroke-width:1px;stroke-dasharray:27.81,27.81;"/><path d="M174.57,158.614l-10.375,6.029l-10.393,-6" style="fill:none;stroke:#fff;stroke-width:1px;"/><path d="M129.582,144.659l-84.771,-48.942" style="fill:none;stroke:#fff;stroke-width:1px;stroke-dasharray:27.97,27.97;"/></g></svg>