<?xml version="1.0" standalone="no"?>
<!DOCTYPE svg PUBLIC "-//W3C//DTD SVG 20010904//EN"
 "http://www.w3.org/TR/2001/REC-SVG-20010904/DTD/svg10.dtd">
<svg version="1.0" xmlns="http://www.w3.org/2000/svg"
 width="700.000000pt" height="700.000000pt" viewBox="0 0 700.000000 700.000000"
 preserveAspectRatio="xMidYMid meet">
<metadata>
Created by potrace 1.11, written by Peter Selinger 2001-2013
</metadata>
<g transform="translate(0.000000,700.000000) scale(0.100000,-0.100000)"
fill="#000000" stroke="none">
<path d="M2405 5153 c-132 -212 -284 -456 -337 -542 -53 -86 -129 -208 -168
-271 -39 -63 -123 -198 -187 -300 -64 -102 -123 -197 -132 -212 -9 -16 -130
-211 -270 -435 -140 -225 -328 -527 -419 -673 -91 -146 -176 -283 -190 -305
-14 -22 -35 -56 -48 -75 -33 -53 -297 -479 -324 -525 -14 -22 -28 -44 -33 -50
-4 -5 -38 -59 -75 -120 -37 -60 -78 -127 -91 -147 l-23 -38 1094 0 1093 1 317
447 c175 246 330 465 345 486 15 22 148 209 295 415 147 207 272 383 278 391
6 8 36 51 68 95 31 45 154 217 272 383 118 166 259 364 313 440 54 75 102 137
108 137 6 0 25 -24 42 -53 38 -63 307 -496 352 -567 17 -27 71 -113 119 -190
48 -77 167 -268 264 -425 l178 -285 417 -3 417 -2 -30 47 c-16 27 -62 99 -102
160 -105 162 -340 529 -358 558 -15 25 -68 108 -208 325 -41 63 -88 135 -103
160 -16 25 -34 52 -39 60 -5 8 -73 114 -151 235 -77 121 -151 236 -163 255
-13 19 -53 82 -90 140 -37 58 -109 169 -159 247 -51 78 -108 168 -128 200
-145 229 -250 388 -258 388 -8 0 -114 -145 -256 -350 -69 -99 -735 -1047 -767
-1090 -44 -61 -210 -296 -240 -340 -14 -22 -92 -132 -171 -245 -80 -113 -183
-259 -229 -324 -46 -65 -99 -141 -118 -167 -19 -27 -82 -116 -140 -199 -58
-83 -138 -197 -177 -253 -40 -56 -77 -109 -83 -117 -6 -8 -51 -72 -100 -142
l-91 -128 -47 0 c-324 -3 -523 -2 -527 1 -4 4 127 211 298 471 42 65 77 120
77 123 0 3 5 11 11 18 6 7 53 77 104 157 52 80 142 220 202 313 59 92 135 209
168 260 33 50 133 205 221 342 89 138 270 419 404 625 133 206 244 380 247
386 2 6 -59 109 -136 230 -77 120 -174 274 -216 342 -42 67 -78 122 -78 122
-1 -1 -110 -174 -242 -387z"/>
<path d="M4169 3012 c-30 -37 -59 -71 -65 -77 -6 -5 -28 -32 -50 -60 -21 -27
-51 -63 -65 -80 -15 -16 -60 -70 -101 -120 l-76 -90 72 -103 c39 -56 91 -131
116 -166 25 -35 146 -207 269 -382 124 -176 250 -354 280 -396 l56 -78 1143 0
1143 0 -23 38 c-13 21 -106 171 -207 333 l-185 295 -780 -1 c-430 0 -788 2
-796 6 -8 4 -42 47 -75 95 -33 49 -64 93 -68 99 -5 5 -73 102 -151 215 -78
113 -162 234 -187 270 -25 36 -76 109 -113 162 -37 54 -71 100 -75 102 -4 3
-32 -25 -62 -62z"/>
</g>
</svg>
